<svg xmlns="http://www.w3.org/2000/svg" viewBox="0 0 32 32" width="32" height="32">
  <!-- Simplified version for ICO conversion -->
  <rect width="32" height="32" fill="#FCD34D" rx="6"/>
  <circle cx="16" cy="16" r="11" fill="#FBBF24"/>
  <circle cx="16" cy="16" r="7" fill="#FEF3C7"/>
  <g opacity="0.5">
    <path d="M 16,9 L 16,16 L 21,11 Z" fill="#FCD34D"/>
    <path d="M 16,9 L 16,16 L 11,11 Z" fill="#FCD34D"/>
    <path d="M 23,16 L 16,16 L 21,21 Z" fill="#FCD34D"/>
    <path d="M 23,16 L 16,16 L 21,11 Z" fill="#FCD34D"/>
    <path d="M 16,23 L 16,16 L 21,21 Z" fill="#FCD34D"/>
    <path d="M 16,23 L 16,16 L 11,21 Z" fill="#FCD34D"/>
    <path d="M 9,16 L 16,16 L 11,21 Z" fill="#FCD34D"/>
    <path d="M 9,16 L 16,16 L 11,11 Z" fill="#FCD34D"/>
  </g>
  <circle cx="16" cy="16" r="1.5" fill="#F59E0B"/>
</svg>
